<svg xmlns="http://www.w3.org/2000/svg" width="100%" viewBox="780 795 1140 880"><image x="0" y="0" width="3284" height="2203" href="references/survey-audit/site002.jpg"/>
<circle cx="890" cy="1195" r="4" fill="none" stroke="#bc3023" stroke-width="1.5"/><path d="M883.6764226407306,1196.818790065348h8 M887.6764226407306,1192.818790065348v8" stroke="#008579" stroke-width="1.5"/>
<circle cx="919" cy="1197" r="4" fill="none" stroke="#bc3023" stroke-width="1.5"/><path d="M912.5722125362564,1198.43944248088h8 M916.5722125362564,1194.43944248088v8" stroke="#008579" stroke-width="1.5"/>
<circle cx="971" cy="1202" r="4" fill="none" stroke="#bc3023" stroke-width="1.5"/><path d="M963.641507872446,1201.3037205347193h8 M967.641507872446,1197.3037205347193v8" stroke="#008579" stroke-width="1.5"/>
<circle cx="1022" cy="1205" r="4" fill="none" stroke="#bc3023" stroke-width="1.5"/><path d="M1015.2124662276551,1204.1961349152175h8 M1019.2124662276551,1200.1961349152175v8" stroke="#008579" stroke-width="1.5"/>
<circle cx="1073" cy="1209" r="4" fill="none" stroke="#bc3023" stroke-width="1.5"/><path d="M1066.9840897904721,1207.0998038263788h8 M1070.9840897904721,1203.0998038263788v8" stroke="#008579" stroke-width="1.5"/>
<circle cx="1119" cy="1210" r="4" fill="none" stroke="#bc3023" stroke-width="1.5"/><path d="M1115.3444048239562,1209.8121457162622h8 M1119.3444048239562,1205.8121457162622v8" stroke="#008579" stroke-width="1.5"/>
<circle cx="1169" cy="1213" r="4" fill="none" stroke="#bc3023" stroke-width="1.5"/><path d="M1166.6143653677536,1212.6876783007651h8 M1170.6143653677536,1208.6876783007651v8" stroke="#008579" stroke-width="1.5"/>
<circle cx="1219" cy="1215" r="4" fill="none" stroke="#bc3023" stroke-width="1.5"/><path d="M1217.6836607039431,1215.5519563546045h8 M1221.6836607039431,1211.5519563546045v8" stroke="#008579" stroke-width="1.5"/>
<circle cx="1246" cy="1217" r="4" fill="none" stroke="#bc3023" stroke-width="1.5"/><path d="M1246.7801158070768,1217.1838633007999h8 M1250.7801158070768,1213.1838633007999v8" stroke="#008579" stroke-width="1.5"/>
<circle cx="891" cy="1120" r="4" fill="none" stroke="#bc3023" stroke-width="1.5"/><path d="M887.5459010045239,1120.6599312732526h8 M891.5459010045239,1116.6599312732526v8" stroke="#008579" stroke-width="1.5"/>
<circle cx="922" cy="1124" r="4" fill="none" stroke="#bc3023" stroke-width="1.5"/><path d="M916.4416909000497,1122.2805836887846h8 M920.4416909000497,1118.2805836887846v8" stroke="#008579" stroke-width="1.5"/>
<circle cx="1077" cy="1131" r="4" fill="none" stroke="#bc3023" stroke-width="1.5"/><path d="M1070.8535681542655,1130.9409450342835h8 M1074.8535681542655,1126.9409450342835v8" stroke="#008579" stroke-width="1.5"/>
<circle cx="1248" cy="1140" r="4" fill="none" stroke="#bc3023" stroke-width="1.5"/><path d="M1250.6495941708702,1141.0250045087046h8 M1254.6495941708702,1137.0250045087046v8" stroke="#008579" stroke-width="1.5"/>
<polyline points="887.676,1196.819 916.572,1198.439 967.642,1201.304 1019.212,1204.196 1070.984,1207.100 1119.344,1209.812 1170.614,1212.688 1221.684,1215.552 1250.780,1217.184" fill="none" stroke="#008579" stroke-width="1.8"/>
<circle cx="920" cy="1389" r="4" fill="none" stroke="#bc3023" stroke-width="1.5"/><path d="M914.3304985308712,1391.307455062591h8 M918.3304985308712,1387.307455062591v8" stroke="#008579" stroke-width="1.5"/>
<circle cx="920" cy="1244" r="4" fill="none" stroke="#bc3023" stroke-width="1.5"/><path d="M919.4917116680999,1240.8754368827226h8 M923.4917116680999,1236.8754368827226v8" stroke="#008579" stroke-width="1.5"/>
<circle cx="846" cy="1240" r="4" fill="none" stroke="#bc3023" stroke-width="1.5"/><path d="M839.169501469129,1237.692544937409h8 M843.169501469129,1233.692544937409v8" stroke="#008579" stroke-width="1.5"/>
<circle cx="837" cy="1385" r="4" fill="none" stroke="#bc3023" stroke-width="1.5"/><path d="M834.0082883319002,1388.1245631172776h8 M838.0082883319002,1384.1245631172776v8" stroke="#008579" stroke-width="1.5"/>
<polyline points="918.330,1391.307 923.492,1240.875 843.170,1237.693 838.008,1388.125" fill="none" stroke="#008579" stroke-width="1.8"/>
<circle cx="1072" cy="1437" r="4" fill="none" stroke="#bc3023" stroke-width="1.5"/><path d="M1069.165766851777,1436.5075823138457h8 M1073.165766851777,1432.5075823138457v8" stroke="#008579" stroke-width="1.5"/>
<circle cx="887" cy="1437" r="4" fill="none" stroke="#bc3023" stroke-width="1.5"/><path d="M881.1031633079842,1436.2943262311346h8 M885.1031633079842,1432.2943262311346v8" stroke="#008579" stroke-width="1.5"/>
<circle cx="887" cy="1490" r="4" fill="none" stroke="#bc3023" stroke-width="1.5"/><path d="M881.3342331482231,1490.4924176861543h8 M885.3342331482231,1486.4924176861543v8" stroke="#008579" stroke-width="1.5"/>
<circle cx="1071" cy="1490" r="4" fill="none" stroke="#bc3023" stroke-width="1.5"/><path d="M1069.3968366920158,1490.7056737688654h8 M1073.3968366920158,1486.7056737688654v8" stroke="#008579" stroke-width="1.5"/>
<polyline points="1073.166,1436.508 885.103,1436.294 885.334,1490.492 1073.397,1490.706" fill="none" stroke="#008579" stroke-width="1.8"/>
<circle cx="1168" cy="933" r="4" fill="none" stroke="#bc3023" stroke-width="1.5"/><path d="M1160.9192474016868,932.6529548355628h8 M1164.9192474016868,928.6529548355628v8" stroke="#008579" stroke-width="1.5"/>
<circle cx="1354" cy="968" r="4" fill="none" stroke="#bc3023" stroke-width="1.5"/><path d="M1353.5146174781532,969.4889631929018h8 M1357.5146174781532,965.4889631929018v8" stroke="#008579" stroke-width="1.5"/>
<circle cx="1376" cy="862" r="4" fill="none" stroke="#bc3023" stroke-width="1.5"/><path d="M1373.5807525983134,861.847045164437h8 M1377.5807525983134,857.847045164437v8" stroke="#008579" stroke-width="1.5"/>
<circle cx="1187" cy="826" r="4" fill="none" stroke="#bc3023" stroke-width="1.5"/><path d="M1180.9853825218468,825.011036807098h8 M1184.9853825218468,821.011036807098v8" stroke="#008579" stroke-width="1.5"/>
<polyline points="1164.919,932.653 1357.515,969.489 1377.581,861.847 1184.985,825.011" fill="none" stroke="#008579" stroke-width="1.8"/>
<circle cx="952" cy="925" r="4" fill="none" stroke="#bc3023" stroke-width="1.5"/><path d="M948.1818098932769,924.8836676580851h8 M952.1818098932769,920.8836676580851v8" stroke="#008579" stroke-width="1.5"/>
<circle cx="1086" cy="934" r="4" fill="none" stroke="#bc3023" stroke-width="1.5"/><path d="M1083.7620153497144,933.7445892546662h8 M1087.7620153497144,929.7445892546662v8" stroke="#008579" stroke-width="1.5"/>
<circle cx="1092" cy="848" r="4" fill="none" stroke="#bc3023" stroke-width="1.5"/><path d="M1088.8181901067233,849.6163323419149h8 M1092.8181901067233,845.6163323419149v8" stroke="#008579" stroke-width="1.5"/>
<circle cx="960" cy="842" r="4" fill="none" stroke="#bc3023" stroke-width="1.5"/><path d="M953.2379846502856,840.7554107453338h8 M957.2379846502856,836.7554107453338v8" stroke="#008579" stroke-width="1.5"/>
<polyline points="952.182,924.884 1087.762,933.745 1092.818,849.616 957.238,840.755" fill="none" stroke="#008579" stroke-width="1.8"/>
<circle cx="1125" cy="1004" r="4" fill="none" stroke="#bc3023" stroke-width="1.5"/><path d="M1120.9413482383522,1004.3812364507107h8 M1124.9413482383522,1000.3812364507107v8" stroke="#008579" stroke-width="1.5"/>
<circle cx="1129" cy="978" r="4" fill="none" stroke="#bc3023" stroke-width="1.5"/><path d="M1125.058651761648,977.6187635492893h8 M1129.058651761648,973.6187635492893v8" stroke="#008579" stroke-width="1.5"/>
<polyline points="1124.941,1004.381 1129.059,977.619" fill="none" stroke="#008579" stroke-width="1.8"/>
</svg>